<?xml version="1.0" encoding="UTF-8" standalone="no"?><svg id="typicalCurveDownloadSVG" x="0" y="0" width="222.33867" height="155.24805" xml:space="preserve" version="1.1" xmlns="http://www.w3.org/2000/svg" xmlns:svg="http://www.w3.org/2000/svg"><clipPath id="downloadFrameClip"><rect x="49.549999" y="60.299999" width="179.39999" height="143.39999" id="rect2" /></clipPath><!-- bar gradients and patterns not handled properly by Snap SVG, so they need to be put here --><linearGradient id="greenGradient" y2="1" x2="0" y1="0" x1="0"><stop stop-color="#37864b" offset="0%" id="stop5" /><stop stop-color="#d0dacc" offset="100%" id="stop7" /></linearGradient><linearGradient id="blueGradient" y2="1" x2="0" y1="0" x1="0"><stop stop-color="#9195ca" offset="0%" id="stop10" /><stop stop-color="#f0eff8" offset="100%" id="stop12" /></linearGradient><linearGradient id="redGradient" y2="1" x2="0" y1="0" x1="0"><stop stop-color="#910028" offset="0%" id="stop15" /><stop stop-color="#e5c2bc" offset="100%" id="stop17" /></linearGradient><linearGradient id="lightBlueGradient" y2="1" x2="0" y1="0" x1="0"><stop stop-color="#d6dcef" offset="0%" id="stop20" /><stop stop-color="#e9eaf6" offset="50%" id="stop22" /><stop stop-color="#f0eff8" offset="100%" id="stop24" /></linearGradient><pattern viewBox="0 0 27.2 13.5" id="bluePattern" patternUnits="userSpaceOnUse" height="13.5" width="27.2" y="0" x="0">  <g id="g47">    <polyline fill="#3a53a4" style="" points="30,10.4,17.5,0,18,0,30,10" id="polyline27" />    <polyline fill="#3a53a4" style="" points="30,14.9,12,0,12.4,0,30,14.5" id="polyline29" />    <polyline fill="#3a53a4" style="" points="30,19.4,6.6,0,7.1,0,30,19" id="polyline31" />    <polyline fill="#3a53a4" style="" points="20,15.6,1.1,0,1.5,0,20,15.2" id="polyline33" />    <polyline fill="#3a53a4" style="" points="19.8,20,0,3.6,0,3.2,20.3,20" id="polyline35" />    <polyline fill="#3a53a4" style="" points="14.4,20,0,8.1,0,7.7,14.9,20" id="polyline37" />    <polyline fill="#3a53a4" style="" points="9,20,0,12.6,0,12.2,9.5,20" id="polyline39" />    <polyline fill="#3a53a4" style="" points="3.5,20,0,17,0,16.7,4,20" id="polyline41" />    <polyline fill="#3a53a4" style="" points="30,6,22.9,0,23.4,0,30,5.5" id="polyline43" />    <polyline fill="#3a53a4" style="" points="30,1.4,28.3,0,28.8,0,30,1" id="polyline45" />  </g></pattern><pattern viewBox="0 -8.4 17 8.4" id="redPattern" patternUnits="userSpaceOnUse" height="8.4" width="17" y="-8.4" x="0">  <g id="g82">    <polyline fill="#910028" style="" points="17,-6.9,15.1,-8.4,15.4,-8.4,17,-7.2" id="polyline50" />    <polyline fill="#910028" style="" points="17,-4.4,12,-8.4,11.7,-8.4,17,-4.1" id="polyline52" />    <polyline fill="#910028" style="" points="17,-1.3,8.3,-8.4,8.6,-8.4,17,-1.5" id="polyline54" />    <polyline fill="#910028" style="" points="5.3,-8.4,15.4,0,15.1,0,4.9,-8.4" id="polyline56" />    <polyline fill="#910028" style="" points="11.7,0,1.6,-8.4,1.9,-8.4,12,0" id="polyline58" />    <polyline fill="#910028" style="" points="8.3,0,0,-6.9,0,-7.2,8.7,0" id="polyline60" />    <polyline fill="#910028" style="" points="5,0,0,-4.1,0,-4.4,5.3,0" id="polyline62" />    <polyline fill="#910028" style="" points="1.6,0,0,-1.3,0,-1.6,1.9,0" id="polyline64" />    <polyline fill="#910028" style="" points="1.9,-8.4,1.5,-8.4,0,-7.2,0,-6.9,1.9,-8.4" id="polyline66" />    <polyline fill="#910028" style="" points="4.9,-8.4,0,-4.3,0,-4.1,5.3,-8.4" id="polyline68" />    <polyline fill="#910028" style="" points="8.3,-8.4,0,-1.5,0,-1.3,8.6,-8.4" id="polyline70" />    <polyline fill="#910028" style="" points="1.5,0,11.7,-8.4,12,-8.4,1.9,0" id="polyline72" />    <polyline fill="#910028" style="" points="4.9,0,15.1,-8.4,15.4,-8.4,5.2,0" id="polyline74" />    <polyline fill="#910028" style="" points="8.6,0,17,-6.9,17,-7.2,8.3,0" id="polyline76" />    <polyline fill="#910028" style="" points="12,0,17,-4.1,17,-4.4,11.7,0" id="polyline78" />    <polyline fill="#910028" style="" points="15.4,0,17,-1.3,17,-1.5,15.1,0" id="polyline80" />  </g></pattern><desc id="desc85">Created with Snap</desc><defs id="defs87" /><g id="DownloadTypicalCurve" transform="translate(-16.95039,-59.7)"><g id="downloadscopeGrid"><line x1="67.25" x2="67.25" y1="60" y2="204" fill="none" stroke="#cdcdcd" style="stroke-width:0.35" id="line89" /><line x1="85.25" x2="85.25" y1="60" y2="204" fill="none" stroke="#cdcdcd" style="stroke-width:0.35" id="line91" /><line x1="103.25" x2="103.25" y1="60" y2="204" fill="none" stroke="#cdcdcd" style="stroke-width:0.35" id="line93" /><line x1="121.25" x2="121.25" y1="60" y2="204" fill="none" stroke="#cdcdcd" style="stroke-width:0.35" id="line95" /><line x1="139.25" x2="139.25" y1="60" y2="204" fill="none" stroke="#cdcdcd" style="stroke-width:0.35" id="line97" /><line x1="157.25" x2="157.25" y1="60" y2="204" fill="none" stroke="#cdcdcd" style="stroke-width:0.35" id="line99" /><line x1="175.25" x2="175.25" y1="60" y2="204" fill="none" stroke="#cdcdcd" style="stroke-width:0.35" id="line101" /><line x1="193.25" x2="193.25" y1="60" y2="204" fill="none" stroke="#cdcdcd" style="stroke-width:0.35" id="line103" /><line x1="211.25" x2="211.25" y1="60" y2="204" fill="none" stroke="#cdcdcd" style="stroke-width:0.35" id="line105" /><line x1="49.25" x2="229.25" y1="186" y2="186" fill="none" stroke="#cdcdcd" style="stroke-width:0.35" id="line107" /><line x1="49.25" x2="229.25" y1="168" y2="168" fill="none" stroke="#cdcdcd" style="stroke-width:0.35" id="line109" /><line x1="49.25" x2="229.25" y1="150" y2="150" fill="none" stroke="#cdcdcd" style="stroke-width:0.35" id="line111" /><line x1="49.25" x2="229.25" y1="132" y2="132" fill="none" stroke="#cdcdcd" style="stroke-width:0.35" id="line113" /><line x1="49.25" x2="229.25" y1="114" y2="114" fill="none" stroke="#cdcdcd" style="stroke-width:0.35" id="line115" /><line x1="49.25" x2="229.25" y1="96" y2="96" fill="none" stroke="#cdcdcd" style="stroke-width:0.35" id="line117" /><line x1="49.25" x2="229.25" y1="78" y2="78" fill="none" stroke="#cdcdcd" style="stroke-width:0.35" id="line119" /><line x1="138.25" x2="140.25" y1="200.39999" y2="200.39999" fill="none" stroke="#cdcdcd" style="stroke-width:0.35" id="line121" /><line x1="138.25" x2="140.25" y1="196.8" y2="196.8" fill="none" stroke="#cdcdcd" style="stroke-width:0.35" id="line123" /><line x1="138.25" x2="140.25" y1="193.2" y2="193.2" fill="none" stroke="#cdcdcd" style="stroke-width:0.35" id="line125" /><line x1="138.25" x2="140.25" y1="189.60001" y2="189.60001" fill="none" stroke="#cdcdcd" style="stroke-width:0.35" id="line127" /><line x1="138.25" x2="140.25" y1="182.39999" y2="182.39999" fill="none" stroke="#cdcdcd" style="stroke-width:0.35" id="line129" /><line x1="138.25" x2="140.25" y1="178.8" y2="178.8" fill="none" stroke="#cdcdcd" style="stroke-width:0.35" id="line131" /><line x1="138.25" x2="140.25" y1="175.2" y2="175.2" fill="none" stroke="#cdcdcd" style="stroke-width:0.35" id="line133" /><line x1="138.25" x2="140.25" y1="171.60001" y2="171.60001" fill="none" stroke="#cdcdcd" style="stroke-width:0.35" id="line135" /><line x1="138.25" x2="140.25" y1="164.39999" y2="164.39999" fill="none" stroke="#cdcdcd" style="stroke-width:0.35" id="line137" /><line x1="138.25" x2="140.25" y1="160.8" y2="160.8" fill="none" stroke="#cdcdcd" style="stroke-width:0.35" id="line139" /><line x1="138.25" x2="140.25" y1="157.2" y2="157.2" fill="none" stroke="#cdcdcd" style="stroke-width:0.35" id="line141" /><line x1="138.25" x2="140.25" y1="153.60001" y2="153.60001" fill="none" stroke="#cdcdcd" style="stroke-width:0.35" id="line143" /><line x1="138.25" x2="140.25" y1="146.39999" y2="146.39999" fill="none" stroke="#cdcdcd" style="stroke-width:0.35" id="line145" /><line x1="138.25" x2="140.25" y1="142.8" y2="142.8" fill="none" stroke="#cdcdcd" style="stroke-width:0.35" id="line147" /><line x1="138.25" x2="140.25" y1="139.2" y2="139.2" fill="none" stroke="#cdcdcd" style="stroke-width:0.35" id="line149" /><line x1="138.25" x2="140.25" y1="135.60001" y2="135.60001" fill="none" stroke="#cdcdcd" style="stroke-width:0.35" id="line151" /><line x1="138.25" x2="140.25" y1="128.39999" y2="128.39999" fill="none" stroke="#cdcdcd" style="stroke-width:0.35" id="line153" /><line x1="138.25" x2="140.25" y1="124.8" y2="124.8" fill="none" stroke="#cdcdcd" style="stroke-width:0.35" id="line155" /><line x1="138.25" x2="140.25" y1="121.2" y2="121.2" fill="none" stroke="#cdcdcd" style="stroke-width:0.35" id="line157" /><line x1="138.25" x2="140.25" y1="117.6" y2="117.6" fill="none" stroke="#cdcdcd" style="stroke-width:0.35" id="line159" /><line x1="138.25" x2="140.25" y1="110.4" y2="110.4" fill="none" stroke="#cdcdcd" style="stroke-width:0.35" id="line161" /><line x1="138.25" x2="140.25" y1="106.8" y2="106.8" fill="none" stroke="#cdcdcd" style="stroke-width:0.35" id="line163" /><line x1="138.25" x2="140.25" y1="103.2" y2="103.2" fill="none" stroke="#cdcdcd" style="stroke-width:0.35" id="line165" /><line x1="138.25" x2="140.25" y1="99.599998" y2="99.599998" fill="none" stroke="#cdcdcd" style="stroke-width:0.35" id="line167" /><line x1="138.25" x2="140.25" y1="92.400002" y2="92.400002" fill="none" stroke="#cdcdcd" style="stroke-width:0.35" id="line169" /><line x1="138.25" x2="140.25" y1="88.800003" y2="88.800003" fill="none" stroke="#cdcdcd" style="stroke-width:0.35" id="line171" /><line x1="138.25" x2="140.25" y1="85.199997" y2="85.199997" fill="none" stroke="#cdcdcd" style="stroke-width:0.35" id="line173" /><line x1="138.25" x2="140.25" y1="81.599998" y2="81.599998" fill="none" stroke="#cdcdcd" style="stroke-width:0.35" id="line175" /><line x1="138.25" x2="140.25" y1="74.400002" y2="74.400002" fill="none" stroke="#cdcdcd" style="stroke-width:0.35" id="line177" /><line x1="138.25" x2="140.25" y1="70.800003" y2="70.800003" fill="none" stroke="#cdcdcd" style="stroke-width:0.35" id="line179" /><line x1="138.25" x2="140.25" y1="67.199997" y2="67.199997" fill="none" stroke="#cdcdcd" style="stroke-width:0.35" id="line181" /><line x1="138.25" x2="140.25" y1="63.599998" y2="63.599998" fill="none" stroke="#cdcdcd" style="stroke-width:0.35" id="line183" /><line x1="52.849998" x2="52.849998" y1="131" y2="133" fill="none" stroke="#cdcdcd" style="stroke-width:0.35" id="line185" /><line x1="56.450001" x2="56.450001" y1="131" y2="133" fill="none" stroke="#cdcdcd" style="stroke-width:0.35" id="line187" /><line x1="60.049999" x2="60.049999" y1="131" y2="133" fill="none" stroke="#cdcdcd" style="stroke-width:0.35" id="line189" /><line x1="63.650002" x2="63.650002" y1="131" y2="133" fill="none" stroke="#cdcdcd" style="stroke-width:0.35" id="line191" /><line x1="70.849998" x2="70.849998" y1="131" y2="133" fill="none" stroke="#cdcdcd" style="stroke-width:0.35" id="line193" /><line x1="74.449997" x2="74.449997" y1="131" y2="133" fill="none" stroke="#cdcdcd" style="stroke-width:0.35" id="line195" /><line x1="78.050003" x2="78.050003" y1="131" y2="133" fill="none" stroke="#cdcdcd" style="stroke-width:0.35" id="line197" /><line x1="81.650002" x2="81.650002" y1="131" y2="133" fill="none" stroke="#cdcdcd" style="stroke-width:0.35" id="line199" /><line x1="88.849998" x2="88.849998" y1="131" y2="133" fill="none" stroke="#cdcdcd" style="stroke-width:0.35" id="line201" /><line x1="92.449997" x2="92.449997" y1="131" y2="133" fill="none" stroke="#cdcdcd" style="stroke-width:0.35" id="line203" /><line x1="96.050003" x2="96.050003" y1="131" y2="133" fill="none" stroke="#cdcdcd" style="stroke-width:0.35" id="line205" /><line x1="99.650002" x2="99.650002" y1="131" y2="133" fill="none" stroke="#cdcdcd" style="stroke-width:0.35" id="line207" /><line x1="106.85" x2="106.85" y1="131" y2="133" fill="none" stroke="#cdcdcd" style="stroke-width:0.35" id="line209" /><line x1="110.45" x2="110.45" y1="131" y2="133" fill="none" stroke="#cdcdcd" style="stroke-width:0.35" id="line211" /><line x1="114.05" x2="114.05" y1="131" y2="133" fill="none" stroke="#cdcdcd" style="stroke-width:0.35" id="line213" /><line x1="117.65" x2="117.65" y1="131" y2="133" fill="none" stroke="#cdcdcd" style="stroke-width:0.35" id="line215" /><line x1="124.85" x2="124.85" y1="131" y2="133" fill="none" stroke="#cdcdcd" style="stroke-width:0.35" id="line217" /><line x1="128.45" x2="128.45" y1="131" y2="133" fill="none" stroke="#cdcdcd" style="stroke-width:0.35" id="line219" /><line x1="132.05" x2="132.05" y1="131" y2="133" fill="none" stroke="#cdcdcd" style="stroke-width:0.35" id="line221" /><line x1="135.64999" x2="135.64999" y1="131" y2="133" fill="none" stroke="#cdcdcd" style="stroke-width:0.35" id="line223" /><line x1="142.85001" x2="142.85001" y1="131" y2="133" fill="none" stroke="#cdcdcd" style="stroke-width:0.35" id="line225" /><line x1="146.45" x2="146.45" y1="131" y2="133" fill="none" stroke="#cdcdcd" style="stroke-width:0.35" id="line227" /><line x1="150.05" x2="150.05" y1="131" y2="133" fill="none" stroke="#cdcdcd" style="stroke-width:0.35" id="line229" /><line x1="153.64999" x2="153.64999" y1="131" y2="133" fill="none" stroke="#cdcdcd" style="stroke-width:0.35" id="line231" /><line x1="160.85001" x2="160.85001" y1="131" y2="133" fill="none" stroke="#cdcdcd" style="stroke-width:0.35" id="line233" /><line x1="164.45" x2="164.45" y1="131" y2="133" fill="none" stroke="#cdcdcd" style="stroke-width:0.35" id="line235" /><line x1="168.05" x2="168.05" y1="131" y2="133" fill="none" stroke="#cdcdcd" style="stroke-width:0.35" id="line237" /><line x1="171.64999" x2="171.64999" y1="131" y2="133" fill="none" stroke="#cdcdcd" style="stroke-width:0.35" id="line239" /><line x1="178.85001" x2="178.85001" y1="131" y2="133" fill="none" stroke="#cdcdcd" style="stroke-width:0.35" id="line241" /><line x1="182.45" x2="182.45" y1="131" y2="133" fill="none" stroke="#cdcdcd" style="stroke-width:0.35" id="line243" /><line x1="186.05" x2="186.05" y1="131" y2="133" fill="none" stroke="#cdcdcd" style="stroke-width:0.35" id="line245" /><line x1="189.64999" x2="189.64999" y1="131" y2="133" fill="none" stroke="#cdcdcd" style="stroke-width:0.35" id="line247" /><line x1="196.85001" x2="196.85001" y1="131" y2="133" fill="none" stroke="#cdcdcd" style="stroke-width:0.35" id="line249" /><line x1="200.45" x2="200.45" y1="131" y2="133" fill="none" stroke="#cdcdcd" style="stroke-width:0.35" id="line251" /><line x1="204.05" x2="204.05" y1="131" y2="133" fill="none" stroke="#cdcdcd" style="stroke-width:0.35" id="line253" /><line x1="207.64999" x2="207.64999" y1="131" y2="133" fill="none" stroke="#cdcdcd" style="stroke-width:0.35" id="line255" /><line x1="214.85001" x2="214.85001" y1="131" y2="133" fill="none" stroke="#cdcdcd" style="stroke-width:0.35" id="line257" /><line x1="218.45" x2="218.45" y1="131" y2="133" fill="none" stroke="#cdcdcd" style="stroke-width:0.35" id="line259" /><line x1="222.05" x2="222.05" y1="131" y2="133" fill="none" stroke="#cdcdcd" style="stroke-width:0.35" id="line261" /><line x1="225.64999" x2="225.64999" y1="131" y2="133" fill="none" stroke="#cdcdcd" style="stroke-width:0.35" id="line263" /><polyline points="83.75,60,85.25,61.5,86.75,60" fill="#cdcdcd" stroke="#cdcdcd" style="stroke-width:0.35" id="polyline265" /></g><g id="downloadscopeData" clip-path="url(#downloadFrameClip)"><g id="downloadData 0"><path d="m 49.25,96.4536 0.36,1.1556 0.36,-2.8728 0.36,2.8728 V 95.865 l 0.18,1.7622 0.18,-1.7471 0.18,1.8551 0.18,-1.8857 0.18,1.8065 0.18,-2.1636 0.18,0.9288 0.18,-2.178 0.18,2.0696 0.18,-2.1164 0.36,2.101 v -1.6546 l 0.36,1.7165 v -1.4069 l 0.18,1.4688 0.18,-1.1736 0.18,1.206 0.18,-1.656 0.18,1.656 0.18,-1.1304 0.18,1.4076 0.18,-1.4832 0.36,1.8072 V 95.262 l 0.36,1.3428 v -1.3572 l 0.36,2.3184 v -2.2896 l 0.18,1.9944 0.18,-1.4213 0.18,1.3889 0.18,-1.3273 0.18,1.7161 0.18,-2.3796 0.18,1.206 0.18,-2.412 0.18,1.8079 0.18,-1.3435 0.36,1.3435 v -1.2067 l 0.18,1.5311 0.18,-1.5311 0.18,1.67 0.18,-1.0652 0.36,1.206 v -1.4832 1.6812 l 0.36,-1.9908 0.18,1.7928 0.18,-1.206 0.36,1.8072 v -1.8072 l 0.18,1.206 0.18,-1.5912 v 2.1924 l 0.36,-1.4688 0.36,1.4688 v -1.4832 l 0.18,2.0376 0.18,-1.9908 0.18,1.728 0.18,-1.8216 0.18,2.0412 0.18,-1.1124 0.36,1.2024 v -1.2816 l 0.36,1.3896 v -1.3104 l 0.18,1.0944 0.18,-3.2436 0.18,1.993 0.18,-1.6546 0.36,1.7784 v -1.7784 l 0.18,1.8108 0.18,-1.7784 0.36,2.3652 v -1.7928 l 0.18,1.206 0.18,-0.9288 0.18,1.3428 0.18,-1.3428 0.18,1.3608 0.18,-1.4364 0.36,1.3752 v -1.1142 l 0.36,1.593 v -1.4537 l 0.36,1.7597 v -1.9908 l 0.18,1.3752 0.18,-1.0516 0.18,0.4173 0.18,-2.3177 0.198,1.777 0.144,-1.777 0.36,2.5632 V 94.272 l 0.252,1.809 0.108,-1.359 0.288,1.7316 0.072,-1.206 0.252,1.206 0.108,-1.7316 0.306,1.7316 0.054,-1.2528 0.342,1.7748 0.018,-1.728 0.306,1.6524 0.054,-1.1898 0.18,1.4526 0.18,-2.286 0.198,2.178 0.162,-1.1592 0.216,1.1592 0.144,-0.8809 0.216,0.8953 0.144,-1.2042 0.108,1.467 0.252,-2.6892 0.306,1.2067 0.054,-1.2499 0.108,1.6358 0.252,-2.0534 0.216,2.1463 0.144,-1.5919 0.126,1.7172 0.234,-1.3752 0.18,1.3752 0.18,-1.1916 0.288,1.7928 0.072,-2.07 0.324,1.9908 0.036,-1.6992 0.288,1.962 0.072,-1.7136 0.36,1.53 v -1.5624 l 0.18,1.5624 0.18,-1.8072 0.288,2.3328 0.072,-1.7309 0.324,2.1305 0.036,-1.9916 0.126,1.6676 0.234,-1.4666 0.198,0.8654 0.162,-2.7504 0.252,2.2248 0.108,-2.1168 0.252,1.8385 0.108,-1.6081 0.216,1.8108 0.144,-1.8108 0.18,1.8108 0.18,-1.206 0.306,1.6992 0.054,-2.0556 0.252,1.854 0.108,-1.8684 0.288,2.178 0.072,-2.0556 0.234,2.0088 0.126,-1.746 0.234,1.7928 0.126,-1.2053 0.108,1.2053 0.252,-1.1898 0.072,1.1898 0.288,-3.0132 0.36,1.9004 v -1.6052 l 0.27,2.1168 0.09,-2.2716 0.288,2.2716 0.072,-1.638 0.342,1.5732 0.018,-1.3104 0.36,1.3752 v -1.5012 l 0.162,1.8864 0.198,-1.7316 0.18,1.3608 0.18,-0.882 0.342,1.314 0.018,-1.4364 0.252,1.5912 0.108,-1.7784 0.342,1.638 0.018,-1.0649 0.234,1.1909 0.126,-1.1754 0.324,3.2598 0.036,-3.2137 0.36,12.0049 v -9.3492 l 0.36,17.7732 v -7.848 l 0.288,9.684 0.072,-1.836 0.108,0.864 0.252,-2.736 0.216,0.648 0.144,-2.412 0.252,1.62 0.108,-3.96 0.09,0.936 0.27,-4.248 0.162,1.98 0.198,-4.752 0.036,0.684 0.324,-4.896 0.054,1.584 0.306,-4.4424 0.252,1.2816 0.108,-2.8116 0.306,1.9764 0.054,-2.3328 0.342,1.9476 0.018,-1.8396 0.36,2.7828 v -2.3645 l 0.342,2.7353 0.018,-2.1312 0.216,2.4084 0.144,-2.4084 0.342,1.9152 0.018,-1.746 0.162,1.4652 0.198,-1.8061 0.09,1.3741 0.27,-1.5905 0.198,1.6085 0.162,-1.8245 0.234,1.8065 0.126,-1.8065 0.09,1.8533 0.27,-1.2492 0.324,2.376 0.036,-2.376 0.27,2.394 0.09,-2.3652 0.252,1.9944 0.108,-2.133 0.108,1.8846 0.252,-1.7748 0.144,1.8072 0.216,-2.1953 0.198,1.8677 0.162,-1.9912 0.108,1.9012 0.252,-1.6848 0.09,2.7036 0.27,-2.2104 0.288,1.53 0.072,-1.1592 0.288,1.2204 0.072,-1.188 0.288,0.8784 0.072,-0.9864 0.27,0.7092 0.09,-1.2204 0.342,1.7928 0.018,-2.3789 0.162,2.2241 0.198,-1.9152 0.324,1.4976 0.036,-2.2536 0.342,2.826 0.018,-1.7748 0.162,1.6668 0.198,-2.1784 0.342,2.3188 0.018,-1.8072 0.18,1.8072 0.18,-1.7784 0.18,2.1492 0.18,-2.1636 0.162,1.6848 0.198,-2.1335 0.36,1.5611 v -1.7309 l 0.072,1.8065 0.288,-1.8065 0.306,2.4113 0.054,-2.3807 0.198,2.9207 0.162,-2.6579 0.36,2.7191 v -2.286 l 0.36,1.5768 V 96.576 l 0.09,1.314 0.27,-2.3652 0.198,2.736 0.18,-1.8072 0.18,1.7604 0.18,-2.0866 0.36,1.9318 v -1.6056 l 0.18,1.6344 0.18,-1.6344 0.18,1.7136 0.18,-2.1633 0.36,2.1921 v -1.7424 l 0.18,1.836 0.18,-2.4401 0.18,2.8109 0.18,-2.2068 0.36,1.7892 v -2.3317 l 0.18,2.2561 0.18,-2.2561 0.36,2.4397 v -2.3624 l 0.36,2.2724 v -2.226 l 0.36,2.5968 v -1.9944 l 0.36,1.4508 v -1.8526 l 0.36,2.0254 v -1.948 l 0.18,1.8688 0.18,-2.3321 0.18,2.4113 0.18,-1.8072 0.36,1.7136 v -1.7136 l 0.18,1.5444 0.18,-1.206 v 2.07 l 0.36,-2.6572 0.18,2.2864 0.18,-3.15 0.36,2.9196 v -1.8864 l 0.36,1.7604 V 96.05 l 0.18,2.2108 0.18,-2.2415 0.36,2.5655 V 96.112 l 0.36,1.9328 v -2.1953 2.3177 l 0.36,-2.2716 0.18,2.3652 0.18,-1.8072 0.18,1.8072 0.18,-2.0405 0.36,1.9613 v -1.728 l 0.36,1.4976 v -1.4976 l 0.36,1.5264 v -1.5264 l 0.36,2.3472 v -2.6424 l 0.36,2.5164 v -2.2212 l 0.36,1.728 v -2.3015 l 0.36,2.1647 v -1.5912 l 0.36,1.8072 v -2.3652 l 0.36,2.3652 v -1.8072 l 0.36,1.8072 v -1.8072 l 0.18,1.5912 0.18,-1.53 0.36,1.746 v -2.3342 l 0.18,1.9922 0.18,-1.7759 0.18,2.1323 0.18,-1.9624 v 1.4512 l 0.36,-2.4228 0.18,2.2392 0.18,-1.7309 0.18,1.6985 0.18,-1.9296 0.36,2.0232 v -1.7921 l 0.18,2.2565 0.18,-1.8241 v 1.8853 l 0.36,-1.8234 0.36,2.2086 v -2.0988 l 0.18,2.4552 0.18,-1.854 0.36,1.5444 v -2.1024 l 0.18,2.1492 0.18,-2.6576 0.18,2.8412 0.18,-2.934 0.36,2.3652 v -2.1334 l 0.36,2.0866 v -2.3645 l 0.36,2.2709 v -1.7136 l 0.18,2.3616 0.18,-2.3148 0.18,1.728 0.18,-1.728 0.36,1.7136 v -1.7136 l 0.18,1.8072 0.18,-1.9944 0.18,2.286 0.18,-2.2241 0.18,1.7921 0.18,-1.6668 0.36,1.8072 v -2.0099 l 0.18,1.4051 0.18,-1.5286 0.18,2.0074 0.18,-2.2853 0.18,2.4113 0.18,-2.3342 0.18,2.3342 0.18,-2.1798 0.18,2.1798 0.18,-1.9789 0.18,1.6081 0.18,-2.6136 v 2.3796 l 0.36,-1.8065 0.18,2.0081 0.18,-2.0081 0.36,2.4113 v -2.1953 l 0.36,2.1485 v -1.8547 l 0.18,1.9015 0.18,-2.226 v 2.226 l 0.36,-2.3497 0.36,2.8285 v -1.8252 l 0.18,1.9476 0.18,-2.3796 0.36,2.286 v -2.7645 l 0.18,1.9941 0.18,-1.5624 0.36,1.8252 v -1.9015 l 0.36,1.3291 v -1.2348 l 0.36,1.8072 v -2.1953 l 0.18,2.1953 0.18,-1.6848 0.36,1.6848 v -1.8072 l 0.36,1.8072 v -1.8072 l 0.18,1.8072 0.18,-2.226 0.36,2.226 v -1.8072 l 0.18,1.8216 0.18,-2.3951 0.36,2.3807 v -1.4832 l 0.18,1.0476 0.18,-1.3716 0.36,1.3896 v -1.3896 1.4184 l 0.36,-1.6056 0.18,1.8396 0.18,-2.1794 0.36,1.4522 V 91.896 l 0.18,-0.072 0.18,-11.016 0.18,1.008 0.18,-5.544 0.18,0.756 0.18,-2.124 0.36,3.456 v -2.916 l 0.36,5.184 v -2.376 l 0.36,3.744 v -1.764 l 0.36,4.176 v -2.412 l 0.18,3.996 0.18,-2.268 0.18,2.34 0.18,-1.764 0.36,2.52 v -2.412 l 0.36,4.032 v -2.844 l 0.36,4.752 v -3.204 l 0.18,4.5 0.18,-1.656 v 1.044 l 0.36,-1.008 0.18,1.62 0.18,-1.764 0.18,1.98 0.18,-1.44 0.18,1.8 0.18,-1.44 0.36,1.296 v -1.8 l 0.36,1.908 V 90.42 l 0.18,1.8 0.18,-1.188 0.36,1.08 v -1.08 1.188 l 0.36,-0.936 0.36,1.4616 V 90.852 l 0.18,1.9836 0.18,-1.1916 0.36,1.5948 V 91.644 l 0.18,1.6416 0.18,-2.0016 0.36,1.692 v -1.332 l 0.36,1.764 V 91.86 l 0.18,1.2852 0.18,-0.9252 0.18,1.2204 0.18,-1.2204 0.18,1.6668 0.18,-1.6308 0.18,1.1844 0.18,-1.2204 0.18,1.3104 0.18,-1.1124 0.36,1.5156 V 92.292 l 0.18,2.8944 0.18,-2.9304 0.18,2.2032 0.18,-1.4076 0.36,1.5624 v -2.0088 l 0.18,1.9008 0.18,-1.6704 0.18,1.5768 0.18,-1.53 0.18,2.304 0.18,-2.1348 0.36,2.196 v -1.8072 l 0.18,1.53 0.18,-1.5012 0.36,1.7784 v -1.7784 l 0.36,1.746 v -1.1736 l 0.18,1.206 0.18,-1.206 0.36,1.777 V 93.516 l 0.18,2.2097 0.18,-1.6697 0.36,1.7935 v -1.8079 l 0.18,1.8079 0.18,-1.1599 0.18,1.129 0.18,-1.003 0.18,1.6056 0.18,-1.7784 0.18,1.3765 0.18,-1.4845 v 1.9188 l 0.36,-1.206 0.18,1.206 0.18,-1.206 0.18,1.4364 0.18,-1.2348 0.18,1.0044 0.18,-1.1124 0.36,1.6524 v -1.5624 l 0.18,1.6236 0.18,-1.6848 0.18,2.2572 0.18,-2.1348 0.18,1.854 0.18,-1.8684 0.18,1.9944 0.18,-1.5458 0.18,1.4522 0.18,-1.174 0.36,1.4512 v -1.8065 l 0.36,1.8533 v -1.6989 l 0.36,2.0085 v -1.2816 l 0.36,1.53 v -1.206 l 0.18,1.296 0.18,-1.404 0.18,1.1736 0.18,-1.296 0.18,1.4364 0.18,-0.99 0.18,0.99 0.18,-1.206 0.18,1.746 0.18,-1.1448 0.36,1.314 v -1.2528 l 0.36,1.0368 v -1.6056 l 0.18,1.8828 0.18,-1.9476 v 2.1024 l 0.36,-2.0088 0.18,1.6992 0.18,-0.8028 0.18,1.314 0.18,-1.6992 0.18,2.2716 0.18,-1.6704 0.36,1.1736 V 97.656 l 0.18,2.268 0.18,-1.4796 0.18,1.6236 0.18,-1.854 0.36,2.43 v -2.43 1.854 l 0.36,-1.0656 v 1.0656 l 0.36,-1.0224 0.18,1.6344 0.18,-1.818 0.36,1.674 v -1.3968 l 0.18,1.5408 0.18,-1.2168 0.18,1.2168 0.18,-1.6776 0.18,2.2536 0.18,-1.7928 0.36,1.3608 v -1.188 l 0.18,1.98 0.18,-1.98 0.36,2.052 v -1.62 l 0.18,1.512 0.18,-1.008 0.18,1.296 0.18,-1.8 0.36,1.764 v -1.764 l 0.18,1.8 0.18,-1.62 0.36,1.584 V 99.78 l 0.18,2.196 0.18,-1.224 0.18,1.728 0.18,-2.124 0.18,1.98 0.18,-1.188 0.36,0.72 v -2.9124 l 0.18,1.1124 0.18,-1.8072 0.36,1.7712 v -1.7712 1.2204 l 0.36,-1.6092 v 0.4968 l 0.36,-2.2568 0.36,2.1488 v -1.206 l 0.18,1.206 0.18,-1.7784 0.18,2.3184 0.18,-1.4832 0.18,0.6948 0.18,-2.7648 0.36,1.8072 V 95.262 l 0.18,1.7928 0.18,-1.2053 0.36,1.2053 v -0.85 l 0.18,1.3612 0.18,-1.701 0.36,1.791 v -1.2492 l 0.36,1.4832 v -1.4364 l 0.18,1.5912 0.18,-2.1953 0.36,0.0925 V 94.83 l 0.36,2.0088 v -1.638 l 0.36,1.854 v -1.8072 l 0.18,1.296 0.18,-1.2348 0.36,1.746 v -1.2053 l 0.36,1.1441 v -1.1441 l 0.18,1.1909 0.18,-1.656 0.36,1.9332 v -1.4065 l 0.36,1.6549 v -1.3921 l 0.18,1.3453 0.18,-2.7684 0.18,1.5775 0.18,-1.6999 0.36,1.8252 v -1.764 l 0.18,1.6232 0.18,-1.544 0.18,1.854 0.18,-1.7928 0.36,1.6236 v -1.1304 l 0.36,1.5444 v -1.512 l 0.18,1.6056 0.18,-2.3004 0.18,2.3328 0.18,-1.345 0.36,1.6366 V 95.973 l 0.18,1.683 0.18,-1.7759 0.36,1.1891 V 95.942 l 0.18,1.5592 0.18,-2.3472 0.18,1.2672 0.18,-2.5632 0.18,1.9296 0.18,-2.1312 0.36,2.641 v -2.1946 l 0.18,1.7467 0.18,-1.2067 0.36,1.8108 v -1.854 l 0.36,1.7748 V 95.046 l 0.18,1.3284 0.18,-1.206 0.18,1.2852 0.18,-1.206 0.36,1.206 v -1.206 l 0.36,1.5588 v -1.512 l 0.18,1.7136 0.18,-1.1585 0.18,1.4069 0.18,-1.6236 0.36,1.9152 v -1.714 l 0.18,1.6672 0.18,-1.7446 0.18,2.4718 0.18,-1.8691 0.36,1.5595 v -2.6712 l 0.18,0.6019 0.18,-2.4091 0.36,2.749 v -1.5142 l 0.18,1.6222 0.18,-1.6078 0.36,1.746 v -1.422 l 0.18,1.44 0.18,-1.206 0.18,1.5588 0.18,-1.638 0.36,1.6704 v -1.9476 1.746 l 0.36,-1.1448 0.18,1.422 0.18,-1.1113 0.36,1.4533 v -1.764 l 0.36,1.656 v -1.2989 1.7165 l 0.36,-1.4386 0.18,1.5286 0.18,-1.3741 0.36,1.2841 v -1.1592 l 0.18,0.6156 0.18,-2.7036 0.36,2.0095 v -2.2399 l 0.18,2.147 0.18,-1.5926 0.18,1.6855 0.18,-1.6855 0.36,1.8108 v -1.422 l 0.18,1.7748 0.18,-1.7604 0.36,1.6992 v -1.4976 1.206 l 0.36,-1.206 0.36,1.7604 v -1.4832 l 0.18,1.53 0.18,-1.2053 0.18,1.2053 0.18,-1.746 0.36,2.1924 v -2.1924 l 0.36,2.3328 v -1.7921 l 0.36,2.0837 V 96.081 l 0.18,1.575 0.18,-1.8065 0.18,2.1017 0.18,-2.6748 0.18,0.4493 0.18,-1.6841 0.36,1.8079 v -1.8079 l 0.36,1.8079 v -1.2067 l 0.36,1.6855 v -1.4227 0.9439 l 0.36,-1.2499 0.18,1.8072 0.18,-1.764 0.36,1.854 v -1.2492 l 0.36,1.206 v -1.5624 l 0.18,1.9764 0.18,-1.4976 0.36,1.6848 v -1.7604 l 0.18,1.5732 0.18,-1.4184 0.36,1.5732 v -1.6812 l 0.18,2.0844 0.18,-1.3446 0.18,1.2654 0.18,-1.4663 0.18,1.5455 0.18,-1.8072 0.18,2.0376 0.18,-1.4821 0.36,1.9141 v -1.6344 l 0.36,1.6668 v -2.4408 0.7272 l 0.36,-2.5056 0.36,2.52 v -1.638 l 0.18,1.5761 0.18,-1.6841 0.18,2.3472 0.18,-1.8072 0.18,1.7172 0.18,-1.6848 0.18,1.8072 0.18,-1.8072 0.36,1.8072 v -1.2053 l 0.36,1.4825 v -1.746 l 0.18,1.4688 0.18,-1.1128 0.18,1.4368 0.18,-1.4213 0.36,1.5437 v -1.0476 l 0.18,0.6768 0.18,-2.0232 0.18,0.7423 0.18,-2.9815 v 2.9815 l 0.36,-1.2067 0.36,1.746 v -1.728 l 0.36,1.746 v -1.5444 l 0.18,2.16 0.18,-2.0376 v 1.854 l 0.36,-2.196 0.18,1.8108 0.18,-0.8352 0.36,1.2816 v -1.746 l 0.36,1.9008 v -1.3752 l 0.18,1.3896 0.18,-1.2197 0.36,1.0649 v -1.5732 l 0.18,2.2248 0.18,-1.7165 0.36,1.7165 v -1.7165 2.1953 l 0.36,-1.9638 0.36,-0.216 v -2.1618 l 0.18,2.1463 0.18,-1.4983 0.18,1.9152 0.18,-2.0376 v 2.2248 l 0.36,-1.746 0.18,2.16 0.18,-2.1456 0.18,1.7316 0.18,-1.6704 0.18,2.2716 0.18,-1.8072 0.18,1.7136 0.18,-1.53 0.18,1.4076 0.18,-1.5624 0.36,2.3508 v -1.9015 l 0.18,1.3291 0.18,-1.4832 0.18,1.8216 0.18,-1.8684 0.18,1.854 0.18,-1.5293 0.18,1.7165 0.18,-1.5312 v 0.6024 l 0.36,-2.2104 0.36,1.7161 v -1.5433 l 0.36,1.5124 v -1.4692 l 0.36,1.67 v -1.5764 l 0.36,1.499 v -1.4198 l 0.36,2.2392 v -1.8072 l 0.36,1.512 v -1.962 l 0.36,1.9476 v -1.404 l 0.36,1.404 v -1.035 l 0.36,1.3446 v -1.6524 l 0.36,1.6524 v -1.2053 l 0.36,1.2053 v -1.3446 l 0.18,1.8234 0.18,-1.2982" menuStroke="#9d1b40" stroke="#9d1b40" fill="none" style="stroke-width:0.6;stroke-linecap:butt;stroke-miterlimit:1" id="path268" /></g><g id="downloadData 1"><path d="m 49.25,168.752 0.36,1.037 0.36,-1.932 0.36,1.731 v -1.576 l 0.18,1.313 0.18,-1.653 0.18,1.422 0.18,-1.453 0.18,1.9 0.18,-1.995 0.18,2.29 0.18,-2.195 0.18,1.716 0.18,-1.345 0.36,1.345 v -1.654 l 0.36,1.435 v -1.497 l 0.18,1.651 0.18,-1.728 0.18,1.793 0.18,-1.746 0.18,1.512 0.18,-1.53 0.18,2.304 0.18,-2.179 0.36,1.837 v -1.775 l 0.36,1.761 v -1.344 l 0.36,1.236 v -1.869 l 0.18,2.164 0.18,-1.855 0.18,2.085 0.18,-1.808 0.18,1.315 0.18,-1.315 0.18,1.686 0.18,-1.686 0.18,1.207 0.18,-1.207 0.36,1.02 v -1.436 l 0.18,2.116 0.18,-2.132 0.18,1.546 0.18,-1.623 0.36,1.716 v -1.207 1.207 l 0.36,-1.5 0.18,1.669 0.18,-1.36 0.36,1.173 v -1.513 l 0.18,1.499 0.18,-1.313 v 1.266 l 0.36,-1.467 0.36,1.546 v -2.135 l 0.18,1.948 0.18,-1.498 0.18,1.62 0.18,-1.142 0.18,1.668 0.18,-2.272 0.36,1.793 v -1.544 l 0.36,1.436 v -1.638 l 0.18,1.764 0.18,-1.731 0.18,1.839 0.18,-1.315 0.36,1.438 v -1.808 l 0.18,1.577 0.18,-1.778 0.36,1.929 v -1.867 l 0.18,1.716 0.18,-1.207 0.18,0.602 0.18,-1.08 0.18,1.422 0.18,-1.376 0.36,1.992 v -2.023 l 0.36,1.67 v -1.746 l 0.36,1.746 v -1.207 l 0.18,1.668 0.18,-1.668 0.18,1.175 0.18,-1.779 0.198,1.53 0.144,-1.311 0.36,2.071 v -1.824 l 0.252,1.345 0.108,-1.207 0.288,1.189 0.072,-1.312 0.252,1.683 0.108,-2.007 0.306,1.561 0.054,-1.718 0.342,1.484 0.018,-1.484 0.306,1.718 0.054,-1.114 0.18,1.639 0.18,-2.243 0.198,2.164 0.162,-1.698 0.216,1.514 0.144,-1.376 0.216,1.207 0.144,-1.407 0.108,1.22 0.252,-1.559 0.306,1.944 0.054,-1.405 0.108,1.207 0.252,-1.531 0.216,1.438 0.144,-1.623 0.126,2.224 0.234,-1.946 0.18,1.762 0.18,-2.102 0.288,1.746 0.072,-1.638 0.324,1.577 0.036,-1.718 0.288,2.117 0.072,-1.513 0.36,1.142 v -1.142 l 0.18,1.592 0.18,-2.116 0.288,2.084 0.072,-2.117 0.324,1.699 0.036,-1.142 0.126,1.114 0.234,-1.592 0.198,1.962 0.162,-1.808 0.252,1.531 0.108,-1.207 0.252,1.207 0.108,-1.947 0.216,2.361 0.144,-2.006 0.18,1.157 0.18,-1.376 0.306,1.638 0.054,-1.62 0.252,1.7 0.108,-1.407 0.288,1.608 0.072,-1.546 0.234,1.438 0.126,-1.484 0.234,1.452 0.126,-1.499 0.108,1.358 0.252,-1.638 0.072,2.272 0.288,-2.596 0.36,2.042 v -1.671 l 0.27,1.685 0.09,-1.591 0.288,1.901 0.072,-1.438 0.342,1.344 0.018,-1.915 0.36,1.778 v -1.577 l 0.162,1.451 0.198,-1.685 0.18,1.811 0.18,-1.685 0.342,1.376 0.018,-1.361 0.252,2.257 0.108,-2.087 0.342,1.763 0.018,-1.578 0.234,1.391 0.126,-2.301 0.324,2.07 0.036,-11.282 0.36,-1.512 v -17.64 l 0.36,1.836 v -1.116 l 0.288,1.512 0.072,-2.016 0.108,1.548 0.252,-1.26 0.216,1.26 0.144,-1.296 0.252,1.584 0.108,-1.872 0.09,1.584 0.27,-1.296 0.162,1.044 0.198,-1.584 0.036,1.404 0.324,-1.476 0.054,1.224 0.306,-1.728 0.252,1.656 0.108,-1.26 0.306,1.224 0.054,-2.304 0.342,2.268 0.018,-1.188 0.36,1.404 v -1.8 l 0.342,2.232 0.018,-2.268 0.216,1.692 0.144,-1.764 0.342,1.764 0.018,-1.656 0.162,2.088 0.198,-2.052 0.09,1.584 0.27,-1.692 0.198,1.8 0.162,-1.332 0.234,1.296 0.126,-1.8 0.09,1.728 0.27,-1.584 0.324,1.692 0.036,-2.016 0.27,1.944 0.09,-1.692 0.252,1.62 0.108,-1.368 0.108,1.548 0.252,-1.656 0.144,2.196 0.216,-2.412 0.198,1.728 0.162,-1.692 0.108,2.088 0.252,-1.98 0.09,1.548 0.27,-1.584 0.288,1.224 0.072,-1.116 0.288,1.944 0.072,-1.98 0.288,1.62 0.072,-1.548 0.27,1.548 0.09,-1.656 0.342,2.124 0.018,-2.16 0.162,2.268 0.198,-2.268 0.324,1.98 0.036,-1.512 0.342,0.936 0.018,-1.476 0.162,2.124 0.198,-1.548 0.342,1.224 0.018,-1.548 0.18,1.548 0.18,-1.836 0.18,1.836 0.18,-1.656 0.162,1.404 0.198,-1.26 0.36,1.512 v -1.656 l 0.072,1.512 0.288,-1.188 0.306,1.548 0.054,-1.728 0.198,1.08 0.162,-1.188 0.36,1.548 v -1.764 l 0.36,1.836 v -1.764 l 0.09,1.764 0.27,-1.224 0.198,1.008 0.18,-1.62 0.18,1.764 0.18,-1.44 0.36,1.62 v -1.908 l 0.18,1.656 0.18,-1.08 0.18,1.224 0.18,-1.224 0.36,1.764 v -2.124 l 0.18,1.8 0.18,-1.44 0.18,1.728 0.18,-2.124 0.36,1.368 v -1.26 l 0.18,1.332 0.18,-1.8 0.36,2.304 v -1.908 l 0.36,1.908 v -1.692 l 0.36,1.368 v -1.8 l 0.36,1.8 v -1.764 l 0.36,1.548 v -1.152 l 0.18,1.368 0.18,-1.62 0.18,1.08 0.18,-1.26 0.36,2.304 v -2.232 l 0.18,1.548 0.18,-1.98 v 1.764 l 0.36,-1.332 0.18,1.728 0.18,-1.512 0.36,1.476 v -1.8 l 0.36,1.728 v -1.116 l 0.18,0.936 0.18,-1.476 0.36,1.728 v -1.692 l 0.36,1.476 v -1.584 2.304 l 0.36,-2.16 0.18,1.332 0.18,-1.152 0.18,1.512 0.18,-1.332 0.36,1.548 v -1.476 l 0.36,1.26 v -1.908 l 0.36,2.016 v -1.944 l 0.36,1.8 v -1.188 l 0.36,1.584 v -2.592 l 0.36,2.772 v -1.836 l 0.36,1.584 v -2.124 l 0.36,1.8 v -1.656 l 0.36,2.088 v -2.088 l 0.36,1.656 v -1.728 l 0.18,1.764 0.18,-1.404 0.36,1.584 v -1.476 l 0.18,0.864 0.18,-0.972 0.18,1.404 0.18,-1.512 v 1.512 l 0.36,-1.332 0.18,1.332 0.18,-1.836 0.18,1.62 0.18,-1.332 0.36,1.548 v -1.836 l 0.18,1.296 0.18,-1.188 v 1.728 l 0.36,-1.728 0.36,1.656 v -1.224 l 0.18,1.188 0.18,-1.62 0.36,1.944 v -1.944 l 0.18,2.196 0.18,-1.98 0.18,1.512 0.18,-1.224 0.36,0.648 v -1.26 l 0.36,1.8 v -1.728 l 0.36,1.44 v -1.152 l 0.18,1.476 0.18,-1.404 0.18,1.188 0.18,-1.512 0.36,1.692 V 138.3 l 0.18,2.124 0.18,-2.268 0.18,1.62 0.18,-1.368 0.18,1.296 0.18,-1.296 0.36,1.224 v -1.404 l 0.18,1.728 0.18,-1.908 0.18,1.8 0.18,-1.62 0.18,1.224 0.18,-1.332 0.18,1.728 0.18,-2.376 0.18,2.124 0.18,-1.44 0.18,1.368 0.18,-1.188 v 1.98 l 0.36,-2.196 0.18,1.656 0.18,-1.764 0.36,1.764 v -1.548 l 0.36,1.332 v -1.224 l 0.18,1.62 0.18,-1.62 v 2.088 l 0.36,-2.196 0.36,1.008 v -1.44 l 0.18,2.016 0.18,-1.548 0.36,1.98 v -1.8 l 0.18,1.404 0.18,-1.836 0.36,1.512 v -1.404 l 0.36,1.836 v -1.512 l 0.36,1.368 v -1.584 l 0.18,1.584 0.18,-1.692 0.36,1.656 v -1.62 l 0.36,1.332 v -1.476 l 0.18,1.764 0.18,-1.476 0.36,1.512 v -1.8 l 0.18,1.728 0.18,-1.116 0.36,0.972 v -1.224 l 0.18,1.26 0.18,-1.332 0.36,1.332 v -1.548 1.584 l 0.36,-1.332 0.18,1.512 0.18,-1.728 0.36,22.104 v -21.6 l 0.18,30.128 0.18,-7.664 0.18,8.377 0.18,-1.919 0.18,2.29 0.18,-2.736 0.36,2.779 v -2.176 l 0.36,1.838 v -1.776 l 0.36,1.329 v -0.944 l 0.36,1.052 v -1.484 l 0.18,1.639 0.18,-1.207 0.18,1.747 0.18,-2.132 0.36,1.344 v -1.406 l 0.36,1.622 v -1.545 l 0.36,1.545 v -1.684 l 0.18,1.716 0.18,-1.423 v 1.268 l 0.36,-1.561 0.18,1.608 0.18,-1.099 0.18,1.578 0.18,-1.933 0.18,1.454 0.18,-1.207 0.36,1.315 v -1.515 l 0.36,1.296 v -0.988 l 0.18,1.207 0.18,-1.811 0.36,1.811 v -1.207 1.081 l 0.36,-1.685 0.36,1.811 v -1.207 l 0.18,1.207 0.18,-1.33 0.36,1.33 v -1.592 l 0.18,1.574 0.18,-1.793 0.36,1.811 v -1.222 l 0.36,1.283 v -1.298 l 0.18,1.237 0.18,-1.811 0.18,1.887 0.18,-1.887 0.18,1.901 0.18,-2.441 0.18,2.873 0.18,-1.682 0.18,1.095 0.18,-1.713 0.36,1.778 v -1.531 l 0.18,1.531 0.18,-1.222 0.18,1.049 0.18,-2.192 0.36,2.365 v -1.191 l 0.18,1.191 0.18,-1.608 0.18,1.608 0.18,-1.623 0.18,1.623 0.18,-1.592 0.36,1.823 v -1.854 l 0.18,1.45 0.18,-2.116 0.36,2.89 v -2.07 l 0.36,1.577 v -1.577 l 0.18,1.53 0.18,-1.283 0.36,1.222 v -1.207 l 0.18,1.207 0.18,-1.623 0.36,1.623 v -1.207 l 0.18,1.747 0.18,-2.225 0.18,1.221 0.18,-0.959 0.18,1.513 0.18,-1.806 0.18,2.317 0.18,-1.73 v 1.129 l 0.36,-1.793 0.18,1.653 0.18,-1.638 0.18,1.652 0.18,-1.497 0.18,1.53 0.18,-1.671 0.36,1.915 v -1.836 l 0.18,1.685 0.18,-1.654 0.18,1.607 0.18,-1.16 0.18,1.142 0.18,-1.746 0.18,1.746 0.18,-1.713 0.18,2.286 0.18,-1.73 0.36,1.561 v -1.546 l 0.36,1.175 v -1.175 l 0.36,1.592 v -1.576 l 0.36,1.191 v -1.623 l 0.18,1.915 0.18,-1.761 0.18,1.314 0.18,-1.656 0.18,1.577 0.18,-1.436 0.18,1.577 0.18,-1.422 0.18,1.468 0.18,-1.376 0.36,1.33 v -1.067 l 0.36,1.16 v -1.515 l 0.18,1.515 0.18,-1.191 v 1.098 l 0.36,-1.283 0.18,1.466 0.18,-1.281 0.18,1.976 0.18,-1.992 0.18,1.175 0.18,-1.313 0.36,1.28 v -1.419 l 0.18,1.358 0.18,-1.667 0.18,1.793 0.18,-2.289 0.36,2.134 v -1.052 1.686 l 0.36,-2.195 v 1.716 l 0.36,-1.716 0.18,1.698 0.18,-1.42 0.36,1.73 v -1.499 l 0.18,1.207 0.18,-1.392 0.18,1.392 0.18,-1.685 0.18,1.685 0.18,-1.731 0.36,1.713 v -1.374 l 0.18,1.763 0.18,-1.902 0.36,1.531 v -1.438 l 0.18,1.823 0.18,-2.008 0.18,1.497 0.18,-1.59 0.36,1.651 v -1.713 l 0.18,1.623 0.18,-1.53 0.36,1.836 v -1.466 l 0.18,1.315 0.18,-1.716 0.18,2.595 0.18,-2.086 0.18,1.207 0.18,-1.608 0.36,1.932 v -2.135 l 0.18,1.793 0.18,-1.652 0.36,1.901 v -1.484 1.376 l 0.36,-1.901 v 2.023 l 0.36,-1.452 0.36,1.207 v -1.207 l 0.18,0.898 0.18,-1.502 0.18,1.764 0.18,-1.53 0.18,2.643 0.18,-2.643 0.36,1.577 v -1.623 l 0.18,1.792 0.18,-1.376 0.36,1.207 v -1.546 l 0.18,1.589 0.18,-1.527 0.36,2.024 v -1.747 l 0.36,1.207 v -1.5 l 0.18,1.36 0.18,-1.591 0.36,1.731 v -1.685 l 0.36,2.164 v -2.071 l 0.36,1.466 v -1.638 l 0.18,1.699 0.18,-1.466 0.36,1.531 v -1.811 l 0.36,1.919 v -1.315 l 0.18,1.189 0.18,-1.793 0.36,1.811 v -1.237 l 0.36,1.237 v -1.207 l 0.18,1.207 0.18,-1.654 0.18,1.622 0.18,-1.514 0.36,1.481 v -1.142 l 0.18,1.963 0.18,-2.502 0.18,1.638 0.18,-1.703 0.36,2.29 v -2.272 l 0.36,1.962 v -1.885 l 0.18,1.698 0.18,-1.266 0.18,1.792 0.18,-2.239 0.36,2.239 v -1.869 l 0.18,1.361 0.18,-1.746 0.36,1.746 v -1.793 l 0.18,1.793 0.18,-1.685 0.18,2.24 0.18,-2.271 0.18,1.993 0.18,-2.088 0.36,1.811 v -1.654 l 0.18,1.946 0.18,-1.607 0.36,0.988 v -1.374 l 0.36,1.838 v -1.948 l 0.18,1.811 0.18,-1.608 0.18,2.101 0.18,-1.777 0.36,1.284 v -1.546 l 0.36,1.546 v -1.701 l 0.18,1.701 0.18,-2.055 0.18,1.652 0.18,-1.343 0.36,1.638 v -1.515 l 0.18,1.605 0.18,-1.544 0.18,1.497 0.18,-1.699 0.36,1.746 v -1.793 l 0.18,1.624 0.18,-1.02 0.36,1.25 v -1.574 l 0.18,1.344 0.18,-1.577 0.36,1.854 v -1.901 l 0.18,2.088 0.18,-1.947 0.18,2.041 0.18,-1.578 0.36,1.207 v -1.453 1.453 l 0.36,-1.207 0.18,1.207 0.18,-1.531 0.36,1.531 v -1.207 l 0.36,1.207 v -1.207 1.142 l 0.36,-2.3 0.18,2.146 0.18,-0.988 0.36,1.207 v -1.5 l 0.18,1.5 0.18,-1.207 0.36,1.654 v -2.258 l 0.18,1.811 0.18,-1.345 0.18,1.698 0.18,-1.436 0.36,1.036 v -1.684 l 0.18,1.731 0.18,-1.562 0.36,1.638 v -1.887 2.225 l 0.36,-1.759 0.36,1.853 v -2.1 l 0.18,1.592 0.18,-1.685 0.18,1.62 0.18,-1.142 0.36,1.207 v -1.207 l 0.36,1.189 v -1.513 l 0.36,1.531 v -1.407 l 0.18,1.234 0.18,-1.373 0.18,1.546 0.18,-1.716 0.18,1.947 0.18,-2.009 0.36,1.652 v -1.374 l 0.36,1.871 v -1.994 l 0.36,1.623 v -1.438 1.622 l 0.36,-1.391 0.18,1.499 0.18,-1.761 0.36,1.7 v -1.854 l 0.36,1.623 v -1.207 l 0.18,1.578 0.18,-1.578 0.36,1.315 v -1.423 l 0.18,1.794 0.18,-2.195 0.36,1.716 v -1.469 l 0.18,1.39 0.18,-1.714 0.18,1.761 0.18,-1.375 0.18,2.239 0.18,-2.332 0.18,1.453 0.18,-1.16 0.36,0.926 v -1.435 l 0.36,1.327 v -0.818 1.715 l 0.36,-2.224 0.36,1.716 v -1.811 l 0.18,2.366 0.18,-1.839 0.18,1.252 0.18,-1.607 0.18,1.992 0.18,-2.099 0.18,2.023 0.18,-1.592 0.36,1.578 v -1.47 l 0.36,1.02 v -1.624 l 0.18,1.811 0.18,-1.608 0.18,1.561 0.18,-1.764 0.36,2.135 v -1.531 l 0.18,1.592 0.18,-2.196 0.18,1.718 0.18,-1.948 v 2.426 l 0.36,-1.916 0.36,1.902 v -1.902 l 0.36,1.423 v -1.593 l 0.18,2.007 0.18,-1.806 v 1.5 l 0.36,-1.546 0.18,1.546 0.18,-1.764 0.36,1.577 v -1.732 l 0.36,1.919 v -1.685 l 0.18,1.08 0.18,-0.602 0.36,1.376 v -1.7 l 0.18,1.531 0.18,-1.438 0.36,1.823 v -2.131 1.746 l 0.36,-1.592 0.36,1.977 v -1.592 l 0.18,1.16 0.18,-1.731 0.18,1.731 0.18,-1.623 v 1.638 l 0.36,-1.437 0.18,1.451 0.18,-1.605 0.18,1.623 0.18,-1.639 0.18,1.639 0.18,-1.67 0.18,1.605 0.18,-1.574 0.18,1.639 0.18,-1.701 0.36,1.467 v -1.451 l 0.18,2.798 0.18,-2.924 0.18,2.38 0.18,-2.285 0.18,1.637 0.18,-1.513 0.18,2.006 0.18,-2.3 v 1.559 l 0.36,-1.484 0.36,2.225 v -2.099 l 0.36,1.466 v -1.343 l 0.36,1.407 v -1.144 l 0.36,1.234 v -1.327 l 0.36,1.374 v -1.775 l 0.36,1.638 v -1.16 l 0.36,1.546 v -1.438 l 0.36,1.114 v -1.114 l 0.36,1.668 v -2.007 l 0.36,1.852 v -2.117 l 0.36,2.088 v -1.993 l 0.18,1.497 0.18,-0.988" menuStroke="#039dd3" stroke="#039dd3" fill="none" style="stroke-width:0.6;stroke-linecap:butt;stroke-miterlimit:1" id="path271" /></g></g><rect x="49.25" y="60" width="180" height="144" fill="none" stroke="#000000" id="downloadScopeOutline" style="stroke-width:0.6" /><g id="downloadGrounds Line 0"><polyline points="48.65,96,46.65,96" stroke="#9d1b40" fill="none" style="stroke-width:0.3" id="polyline276" /></g><g id="downloadGrounds Line 1"><polyline points="48.65,168,46.65,168" stroke="#039dd3" fill="none" style="stroke-width:0.3" id="polyline279" /></g><text x="139.25" y="207.7" fill="#000000" dy="6" style="font-weight:bold;font-size:6px;font-family:Arial;text-anchor:middle" id="text299"><tspan id="tspan297">100µs/DIV</tspan></text><g id="downloadY Label  0"><g id="g309"><text x="45.549999" y="88.540001" fill="#000000" dy="6" style="font-weight:bold;font-size:6px;font-family:Arial;text-anchor:end" id="text303"><tspan id="tspan301">VOUT</tspan></text><text x="45.549999" y="96.540001" fill="#000000" dy="6" style="font-weight:bold;font-size:6px;font-family:Arial;text-anchor:end" id="text307"><tspan id="tspan305">50mV/DIV</tspan></text></g></g><g id="downloadY Label  1"><g id="g320"><text x="45.549999" y="157.353" fill="#000000" dy="6" style="font-weight:bold;font-size:6px;font-family:Arial;text-anchor:end" id="text314"><tspan id="tspan312">Load Step</tspan></text><text x="45.549999" y="165.353" fill="#000000" dy="6" style="font-weight:bold;font-size:6px;font-family:Arial;text-anchor:end" id="text318"><tspan id="tspan316">5A/DIV</tspan></text></g></g><g id="downloadArrows" /><g id="g324" /><g id="downloadGraphID" transform="rotate(-90,239.25,204)"><text x="239.25" y="204" fill="#000000" style="font-weight:normal;font-size:4px;font-family:Arial;text-anchor:start" id="text326">xxxx Gxx</text></g></g></svg>